
# 注：Forge 1.9-12.16.0.1853-1.9 時点での仕様
# 対応キーワード：mtllib, usemtl, v, vt, vn, g, f

# MTL（材質定義）ファイルを指定（自動的に読み込まれる）
mtllib sampleblock.mtl

# 座標系は右手系：+X=東、+Y=上、+Z=南
v 0.000000 1.000000 1.000000
v 0.000000 0.000000 1.000000
v 1.000000 1.000000 1.000000
v 1.000000 0.000000 1.000000
v 1.000000 1.000000 0.000000
v 1.000000 0.000000 0.000000
v 0.000000 1.000000 0.000000
v 0.000000 0.000000 0.000000

# UV座標値は[0, 1]の区間のみ有効
vt 0.00000 0.00000
vt 1.00000 0.00000
vt 1.00000 1.00000
vt 0.00000 1.00000

vn 0.00000 0.00000 1.00000
vn 1.00000 0.00000 0.00000
vn 0.00000 0.00000 -1.00000
vn -1.00000 0.00000 0.00000
vn 0.00000 1.00000 0.00000
vn 0.00000 -1.00000 0.00000

usemtl mat1
# 各面の頂点数は3または4のみ有効
f 2/4/1 4/3/1 3/2/1 1/1/1
f 4/4/2 6/3/2 5/2/2 3/1/2
f 6/4/3 8/3/3 7/2/3 5/1/3
f 8/4/4 2/3/4 1/2/4 7/1/4
f 1/4/5 3/3/5 5/2/5 7/1/5
f 8/4/6 6/3/6 4/2/6 2/1/6

